# xmcd
#
# Track frame offsets:
#	150
#	21529
#	41104
#	62404
#	82354
#	103504
#	125969
#	149134
#	168334
#	190084
#	214759
#
# Disc length: 3169
#
# Revision: 1
# Processed by: cddbd v1.5.1PL0 Copyright (c) Steve Scherf et al.
# Submitted via: CDex 1.51
# Normalized: r0:TDELIM( - )
#
DISCID=ad0c5f0b
DTITLE=Salsa 2004 - Año De Éxitos
DYEAR=2004
DGENRE=Salsa
TTITLE0=Jerry Rivera - Vuela Muy Alto
TTITLE1=Frankie Negrón - Mi Mulata
TTITLE2=Obie Bermúdez - Déjame Explicarte
TTITLE3=Puerto Rican Power - Me Tiene Loco
TTITLE4=Kevin Ceballo - Ámame o Déjame
TTITLE5=Oscar D'León - Cómo Olvidarte
TTITLE6=Domingo Quiñones - A Que No Te Atreves
TTITLE7=Michael Stuart - Mil Rosas
TTITLE8=Ismael Miranda - El Último Trago
TTITLE9=Celia Cruz Con India - La Voz De La Experiencia ( Live)
TTITLE10=Marc Anthony - Salsa Megamix 2004
EXTD=YEAR: 2004
EXTT0=
EXTT1=
EXTT2=
EXTT3=
EXTT4=
EXTT5=
EXTT6=
EXTT7=
EXTT8=
EXTT9=
EXTT10=
PLAYORDER=
